<?xml version="1.0" standalone="no"?>
<!DOCTYPE svg PUBLIC "-//W3C//DTD SVG 20010904//EN"
 "http://www.w3.org/TR/2001/REC-SVG-20010904/DTD/svg10.dtd">
<svg version="1.0" xmlns="http://www.w3.org/2000/svg"
 width="260.000000pt" height="260.000000pt" viewBox="0 0 260.000000 260.000000"
 preserveAspectRatio="xMidYMid meet">
<metadata>
Created by potrace 1.11, written by Peter Selinger 2001-2013
</metadata>
<g transform="translate(0.000000,260.000000) scale(0.100000,-0.100000)"
fill="#000000" stroke="none">
<path d="M0 1300 l0 -1300 1300 0 1300 0 0 1300 0 1300 -1300 0 -1300 0 0
-1300z m2071 531 c148 -56 238 -165 264 -318 l7 -43 -130 0 -129 0 -6 39 c-11
84 -60 134 -142 147 -102 15 -178 -26 -212 -114 -15 -40 -18 -78 -18 -242 0
-184 1 -198 24 -247 33 -74 74 -98 166 -98 109 1 166 44 181 138 l7 37 129 0
129 0 -6 -37 c-35 -205 -175 -323 -402 -340 -243 -18 -416 104 -479 337 -24
90 -25 330 -1 418 48 178 153 293 307 337 77 21 236 14 311 -14z m-1298 -315
c18 -7 47 -30 65 -50 l32 -37 32 32 c47 46 103 69 173 69 86 0 128 -15 168
-60 60 -66 67 -107 67 -412 l0 -268 -109 0 -110 0 -3 258 c-2 141 -7 264 -11
273 -10 20 -50 39 -83 39 -33 0 -81 -25 -94 -49 -6 -12 -10 -118 -10 -270 l0
-251 -110 0 -110 0 0 244 c0 251 -6 298 -40 316 -35 18 -87 11 -119 -16 l-31
-26 0 -259 0 -259 -115 0 -115 0 0 365 0 365 105 0 105 0 6 -41 7 -40 26 25
c63 60 195 85 274 52z"/>
</g>
</svg>
